<svg xmlns="http://www.w3.org/2000/svg" version="1.1" xmlns:xlink="http://www.w3.org/1999/xlink" width="1000px" height="1000px" viewBox="0 0 1000 1000"><metadata><rdf:RDF xmlns:rdf="http://www.w3.org/1999/02/22-rdf-syntax-ns#" xmlns:dc="http://purl.org/dc/elements/1.1/"><rdf:Description><dc:creator>RealFaviconGenerator</dc:creator><dc:source>https://realfavicongenerator.net</dc:source></rdf:Description></rdf:RDF></metadata><title>Anti-Matter Studios</title><defs>
        <linearGradient x1="25%" y1="0%" x2="75%" y2="100%" id="linearGradient-1">
            <stop stop-color="hsl(120, 20%, 70%)" offset="0%"></stop>
            <stop stop-color="hsl(120, 30%, 20%)" offset="100%"></stop>
        </linearGradient>
        <style>
            .debug { display: none; }

            svg {
                --light:        hsl(120, 20%, 80%);
                --light-deep:   hsl(120, 20%, 90%);
                --dark:         hsl(120, 30%, 20%);
                --dark-deep:    hsl(120, 30%, 10%);
            }
        </style>
    </defs><g id="Icons" stroke="none" stroke-width="1" fill="none" fill-rule="evenodd">
        <g id="Anti-Matter-Studios">
	    <!-- <rect id="IconBackground" x="0" y="0" width="1000" height="1000" fill="url(#linearGradient-1)" rx="147"></rect>	 -->
	    <!-- <rect id="IconBackground" x="0" y="0" width="1000" height="1000" fill="url(#linearGradient-1)"></rect>	 -->
	    <!-- <rect id="IconBackground" x="0" y="0" width="1000" height="1000" fill="#A0B894"></rect>	 -->
            <g id="Particles" transform="translate(500, 500)">
                <g id="Top-Right-Particle" transform="translate(-37.5, -112.5)">
                    <path d="M +4 -4 A 150 150 0 1 1 154 146 Z" stroke="hsl(120, 20%, 80%)" stroke-width="16" fill="hsl(120, 30%, 20%)" stroke-linecap="round"></path>
                </g>
                <g id="Bottom-Left-Particle" transform="translate(+37.5, +112.5), rotate(180)">
                    <path d="M +4 -4 A 150 150 0 1 1 154 146 Z" stroke="hsl(120, 30%, 20%)" stroke-width="16" fill="hsl(120, 20%, 80%)" stroke-linecap="round"></path>
                </g>
            </g>
            
            <g id="Separator" transform="translate(250, 250)" stroke-linecap="round" stroke-width="12">
                <line x1="025" y1="000" x2="425" y2="400" id="Bottom-Line" transform="translate(000, 100)" stroke="hsl(120, 30%, 20%)"></line>
                <line x1="000" y1="025" x2="400" y2="425" id="Top-Line" transform="translate(100, 000)" stroke="hsl(120, 20%, 80%)"></line>
                <line x1="000" y1="000" x2="500" y2="500" id="Center-Line-Dark" transform="translate(000, 000)" stroke="hsl(120, 30%, 10%)" stroke-dasharray="78.57, 235.71"></line>
                <line x1="000" y1="000" x2="500" y2="500" id="Center-Line-Light" transform="translate(000, 000)" stroke="hsl(120, 20%, 90%)" stroke-dasharray="78.57, 235.71" stroke-dashoffset="157.14"></line>
            </g>

            <g id="Particle Effects" transform="translate(500, 500)" opacity="0.6" stroke-linecap="round" stroke-width="8">
                <g id="Top Particle Effects" stroke="hsl(120, 30%, 10%)" transform="translate(40, -40)">
                    <g class="debug" stroke="#00FFFF" stroke-width="8">
                        <line x1="0" y1="0" x2="0" y2="0"></line>
                    </g>
                    <g id="Top Particle Effects - Left Element" transform="translate(-75, -75)">
                       <g class="debug" stroke="#00FF00" stroke-width="2">
                            <line x1="0" y1="0" x2="0" y2="0" stroke-width="8"></line>
                            <ellipse cx="0" cy="0" rx="50" ry="50"></ellipse>
                            <ellipse cx="0" cy="0" rx="100" ry="100"></ellipse>
                            <ellipse cx="0" cy="0" rx="150" ry="150"></ellipse>
                        </g>
                        <line x1="0" y1="-100" x2="0" y2="-150" transform="rotate(-12)" id="Top Particle Effects - Line #1"></line>
                        <line x1="0" y1="-050" x2="0" y2="-125" transform="rotate(-25)" id="Top Particle Effects - Line #2"></line>
                    </g>
                    <g id="Top Particle Effects - Right Element" transform="translate(+75, +75), rotate(90)">
                       <g class="debug" stroke="#00FF00" stroke-width="2">
                            <line x1="0" y1="0" x2="0" y2="0" stroke-width="8"></line>
                            <ellipse cx="0" cy="0" rx="50" ry="50"></ellipse>
                            <ellipse cx="0" cy="0" rx="100" ry="100"></ellipse>
                            <ellipse cx="0" cy="0" rx="150" ry="150"></ellipse>
                        </g>
                        <line x1="0" y1="-100" x2="0" y2="-150" transform="rotate(+12)" id="Top Particle Effects - Line #3"></line>
                        <line x1="0" y1="-050" x2="0" y2="-125" transform="rotate(+25)" id="Top Particle Effects - Line #4"></line>
                    </g>
                </g>
                <g id="Bottom Particle Effects" stroke="hsl(120, 20%, 90%)" transform="translate(-40, +40)">
                    <g class="debug" stroke="#00FFFF" stroke-width="8">
                        <line x1="0" y1="0" x2="0" y2="0"></line>
                    </g>
                    <g id="Bottom Particle Effects - Left Element" transform="translate(-75, -75), rotate(270)">
                        <g class="debug" stroke="#00FF00" stroke-width="2">
                            <line x1="0" y1="0" x2="0" y2="0" stroke-width="8"></line>
                            <ellipse cx="0" cy="0" rx="50" ry="50"></ellipse>
                            <ellipse cx="0" cy="0" rx="100" ry="100"></ellipse>
                            <ellipse cx="0" cy="0" rx="150" ry="150"></ellipse>
                        </g>
                        <line x1="0" y1="-100" x2="0" y2="-150" transform="rotate(+12)" id="Bottom Particle Effects - Line #1"></line>
                        <line x1="0" y1="-050" x2="0" y2="-125" transform="rotate(+25)" id="Bottom Particle Effects - Line #2"></line>
                    </g>
                    <g id="Bottom Particle Effects - Right Element" transform="translate(+75, +75), rotate(180)">
                        <g class="debug" stroke="#00FF00" stroke-width="2">
                            <line x1="0" y1="0" x2="0" y2="0" stroke-width="8"></line>
                            <ellipse cx="0" cy="0" rx="50" ry="50"></ellipse>
                            <ellipse cx="0" cy="0" rx="100" ry="100"></ellipse>
                            <ellipse cx="0" cy="0" rx="150" ry="150"></ellipse>
                        </g>
                        <line x1="0" y1="-100" x2="0" y2="-150" transform="rotate(-12)" id="Bottom Particle Effects - Line #3"></line>
                        <line x1="0" y1="-050" x2="0" y2="-125" transform="rotate(-25)" id="Bottom Particle Effects - Line #4"></line>
                    </g>
                </g>
            </g>
        </g>
        <g class="debug" stroke="#FF0000" stroke-width="2">
            <line x1="0249" y1="0000" x2="0249" y2="1000"></line>
            <line x1="0499" y1="0000" x2="0499" y2="1000"></line>
            <line x1="0749" y1="0000" x2="0749" y2="1000"></line>
            <line x1="0000" y1="0249" x2="1000" y2="0249"></line>
            <line x1="0000" y1="0499" x2="1000" y2="0499"></line>
            <line x1="0000" y1="0749" x2="1000" y2="0749"></line>
        </g>
    </g><style>@media (prefers-color-scheme: light) { :root { filter: none; } }
@media (prefers-color-scheme: dark) { :root { filter: none; } }
</style></svg>